<svg xmlns="http://www.w3.org/2000/svg" fill="#fff" viewBox="0 0 32 33"><path d="M24.965 24.38H6.833a2.482 2.482 0 01-2.478-2.478V10.096a2.482 2.482 0 012.478-2.478h18.132a2.482 2.482 0 012.478 2.478v11.806a2.481 2.481 0 01-2.478 2.478zM6.833 10.097v11.806h18.134l-.002-11.806H6.833zM2.478 28.928H8.43a1.238 1.238 0 100-2.477H2.478v-5.802a1.239 1.239 0 10-2.477 0v5.802a2.481 2.481 0 002.478 2.478zm28.283-9.516c-.684 0-1.238.554-1.238 1.238v5.801h-5.951a1.237 1.237 0 100 2.477h5.951a2.48 2.48 0 002.478-2.478v-5.801c0-.683-.554-1.238-1.239-1.238zM0 5.55v5.802a1.238 1.238 0 002.476 0V5.55h5.952a1.238 1.238 0 100-2.476H2.477A2.48 2.48 0 00-.001 5.55zm32 5.8V5.549a2.48 2.48 0 00-2.478-2.478h-5.951a1.237 1.237 0 100 2.476h5.951v5.801c0 .683.554 1.237 1.238 1.237a1.235 1.235 0 001.239-1.236z"/></svg>