<svg viewBox="0 0 56 56" xmlns="http://www.w3.org/2000/svg"><g fill="none" fill-rule="evenodd"><path d="M44.14 11.437a23.03 23.03 0 00-16.352-6.77 23.025 23.025 0 00-16.347 6.77 22.992 22.992 0 00-4.956 7.352 22.963 22.963 0 00-1.818 9c0 3.122.61 6.152 1.818 9.004a22.976 22.976 0 004.956 7.348 22.996 22.996 0 007.348 4.955 22.963 22.963 0 009 1.819 22.96 22.96 0 009.004-1.819 23.037 23.037 0 007.348-4.955 22.976 22.976 0 004.955-7.348 22.967 22.967 0 001.819-9.004c0-3.119-.611-6.148-1.819-9a22.992 22.992 0 00-4.955-7.352z" stroke-opacity=".6" stroke="#FFF" fill="#1B2337" opacity=".6"/><path d="M23.524 37.109a1.68 1.68 0 01-1.684 0 1.683 1.683 0 01-.84-1.456V20.349c0-.6.32-1.158.84-1.456a1.68 1.68 0 011.684 0l13.251 7.65a1.684 1.684 0 010 2.914L23.524 37.11z" fill="#FFF"/></g></svg>