<svg xmlns="http://www.w3.org/2000/svg" viewBox="0 0 32 28" fill="white"><path d="M28.633 17.104c.035.21.026.463-.026.76s-.14.598-.262.904c-.122.306-.271.581-.445.825s-.367.419-.576.524c-.209.105-.393.157-.55.157s-.332-.035-.524-.105c-.175-.052-.393-.1-.655-.144s-.528-.052-.799-.026-.541.083-.812.17-.502.236-.694.445c-.419.437-.664.934-.734 1.493s.009 1.092.236 1.598c.175.349.148.699-.079 1.048-.105.14-.271.284-.498.432s-.476.284-.747.406-.555.218-.851.288c-.297.07-.559.105-.786.105-.157 0-.306-.061-.445-.183s-.236-.253-.288-.393h-.026c-.192-.541-.52-1.009-.982-1.402s-1-.589-1.611-.589c-.594 0-1.131.197-1.611.589s-.816.851-1.009 1.375c-.087.21-.218.362-.393.458s-.367.144-.576.144c-.244 0-.52-.044-.825-.131s-.611-.197-.917-.327c-.306-.131-.581-.284-.825-.458s-.428-.349-.55-.524c-.087-.122-.135-.266-.144-.432s.057-.397.197-.694c.192-.402.266-.86.223-1.375s-.266-.991-.668-1.428c-.244-.262-.541-.432-.891-.511s-.681-.109-.995-.092a4.358 4.358 0 00-1.127.21c-.244.07-.489.052-.734-.052-.192-.07-.371-.231-.537-.485a5.48 5.48 0 01-.746-1.781c-.07-.323-.087-.59-.052-.799.052-.384.227-.629.524-.734.524-.21.995-.555 1.415-1.035s.629-1.017.629-1.611c0-.611-.21-1.144-.629-1.598s-.891-.786-1.415-.996c-.157-.052-.288-.179-.393-.38s-.157-.406-.157-.616c0-.227.035-.48.105-.76s.162-.55.275-.812.244-.502.393-.72c.148-.218.31-.38.485-.485.14-.087.275-.122.406-.105s.275.052.432.105c.524.21 1.07.275 1.637.197s1.07-.327 1.506-.747c.21-.209.362-.467.458-.773s.157-.607.183-.904c.026-.297.026-.568 0-.812s-.048-.419-.065-.524c-.035-.105-.066-.227-.092-.367s-.013-.262.039-.367c.105-.244.293-.458.563-.642s.563-.336.878-.458c.314-.122.62-.214.917-.275s.533-.092.707-.092c.227 0 .406.074.537.223s.223.301.275.458c.192.471.507.886.943 1.244s.952.537 1.546.537c.611 0 1.153-.17 1.624-.511s.803-.773.996-1.297c.07-.14.179-.284.327-.432s.301-.223.458-.223c.244 0 .511.035.799.105s.572.166.851.288c.279.122.537.279.773.472s.423.402.563.629c.087.14.113.293.079.458s-.07.284-.105.354c-.227.506-.297 1.039-.21 1.598s.341 1.048.76 1.467c.419.419.934.651 1.546.694s1.179-.057 1.703-.301c.14-.087.31-.122.511-.105s.371.096.511.236c.262.244.493.616.694 1.113s.336 1 .406 1.506c.035.297-.013.528-.144.694s-.266.275-.406.327c-.542.192-1.004.528-1.388 1.009s-.576 1.026-.576 1.637c0 .594.162 1.113.485 1.559s.747.764 1.27.956c.122.07.227.14.314.21.192.157.323.358.393.602zm-12.182 2.358c.786 0 1.528-.149 2.227-.445s1.305-.707 1.821-1.231c.515-.524.921-1.131 1.218-1.821s.445-1.428.445-2.214-.148-1.524-.445-2.214-.703-1.292-1.218-1.808c-.515-.515-1.122-.921-1.821-1.218s-1.441-.445-2.227-.445c-.786 0-1.524.148-2.214.445s-1.292.703-1.808 1.218c-.515.515-.921 1.118-1.218 1.808s-.445 1.428-.445 2.214.149 1.524.445 2.214.703 1.297 1.218 1.821 1.118.934 1.808 1.231 1.428.445 2.214.445z"/></svg>