<svg xmlns="http://www.w3.org/2000/svg" fill="#fff" viewBox="0 0 32 32"><path d="M13.728 6.272v19.456q0 .448-.352.8t-.8.32-.8-.32l-5.952-5.952H1.152q-.48 0-.8-.352t-.352-.8v-6.848q0-.48.352-.8t.8-.352h4.672l5.952-5.952q.32-.32.8-.32t.8.32.352.8zM20.576 16q0 1.344-.768 2.528t-2.016 1.664q-.16.096-.448.096-.448 0-.8-.32t-.32-.832q0-.384.192-.64t.544-.448.608-.384.512-.64.192-1.024-.192-1.024-.512-.64-.608-.384-.544-.448-.192-.64q0-.48.32-.832t.8-.32q.288 0 .448.096 1.248.48 2.016 1.664T20.576 16zm4.576 0q0 2.72-1.536 5.056t-4 3.36q-.256.096-.448.096-.48 0-.832-.352t-.32-.8q0-.704.672-1.056 1.024-.512 1.376-.8 1.312-.96 2.048-2.4T22.848 16t-.736-3.104-2.048-2.4q-.352-.288-1.376-.8-.672-.352-.672-1.056 0-.448.32-.8t.8-.352q.224 0 .48.096 2.496 1.056 4 3.36T25.152 16z"/></svg>