<svg xmlns="http://www.w3.org/2000/svg" viewBox="0 0 32 32"><path d="M16 23c-3.309 0-6-2.691-6-6s2.691-6 6-6 6 2.691 6 6-2.691 6-6 6zm0-10c-2.206 0-4 1.794-4 4s1.794 4 4 4 4-1.794 4-4-1.794-4-4-4zm11 15H5c-1.654 0-3-1.346-3-3V9c0-1.654 1.346-3 3-3h3a1 1 0 010 2H5c-.551 0-1 .449-1 1v16c0 .552.449 1 1 1h22a1 1 0 001-1V9c0-.551-.448-1-1-1H16a1 1 0 010-2h11c1.654 0 3 1.346 3 3v16c0 1.654-1.346 3-3 3zm-3-17.5a1.5 1.5 0 103.001-.001A1.5 1.5 0 0024 10.5zM15 4a1 1 0 01-1 1h-4a1 1 0 010-2h4a1 1 0 011 1z"/></svg>