<svg xmlns="http://www.w3.org/2000/svg" viewBox="0 0 32 33"><path d="M6.667 28H1.334c-.8 0-1.333-.533-1.333-1.333v-5.333c0-.8.533-1.333 1.333-1.333s1.333.533 1.333 1.333v4h4c.8 0 1.333.533 1.333 1.333S7.467 28 6.667 28zm24 0h-5.333c-.8 0-1.333-.533-1.333-1.333s.533-1.333 1.333-1.333h4v-4c0-.8.533-1.333 1.333-1.333S32 20.534 32 21.334v5.333c0 .8-.533 1.333-1.333 1.333zm0-16c-.8 0-1.333-.533-1.333-1.333v-4h-4c-.8 0-1.333-.533-1.333-1.333s.533-1.333 1.333-1.333h5.333c.8 0 1.333.533 1.333 1.333v5.333c0 .8-.533 1.333-1.333 1.333zM1.333 12C.533 12 0 11.467 0 10.667V5.334c0-.8.533-1.333 1.333-1.333h5.333c.8 0 1.333.533 1.333 1.333s-.533 1.333-1.333 1.333h-4v4c0 .8-.533 1.333-1.333 1.333z"/></svg>