<svg viewBox="0 0 56 56" xmlns="http://www.w3.org/2000/svg"><g fill="none" fill-rule="evenodd"><path d="M49.498 18.917a23.2 23.2 0 00-5-7.419 23.238 23.238 0 00-16.5-6.832 23.234 23.234 0 00-16.496 6.832 23.2 23.2 0 00-5 7.419 23.17 23.17 0 00-1.835 9.081c0 3.15.616 6.208 1.835 9.085a23.184 23.184 0 005 7.415 23.204 23.204 0 007.415 5 23.17 23.17 0 009.081 1.835c3.15 0 6.208-.616 9.085-1.835a23.245 23.245 0 007.415-5 23.184 23.184 0 005-7.415 23.175 23.175 0 001.835-9.085 23.17 23.17 0 00-1.835-9.081" stroke-opacity=".6" stroke="#FFF" fill="#1B2337" opacity=".6"/><path d="M21.467 37.333V18.667h4.2v18.666h-4.2zm13.066-18.666v18.666h-4.2V18.667h4.2z" fill="#FFF"/></g></svg>