<?xml version="1.0" encoding="UTF-8"?>
<svg width="56px" height="56px" viewBox="0 0 56 56" version="1.1" xmlns="http://www.w3.org/2000/svg" xmlns:xlink="http://www.w3.org/1999/xlink">
    <g id="页面-1" stroke="none" stroke-width="1" fill="none" fill-rule="evenodd">
        <g id="切图集合" transform="translate(-31.000000, -155.000000)">
            <g id="icon_big_play_normal" transform="translate(31.000000, 155.000000)">
                <rect id="矩形" fill="#D8D8D8" opacity="0" x="0" y="0" width="56" height="56"></rect>
                <g id="ICON/播放">
                    <rect id="矩形" fill="#D8D8D8" fill-rule="nonzero" opacity="0" x="0" y="0" width="56" height="56"></rect>
                    <g id="Page-1-Copy-28" transform="translate(4.666667, 4.666667)">
                        <path d="M39.4740741,6.77037037 C37.3518519,4.64814815 34.8777778,2.98148148 32.1259259,1.81481481 C29.2740741,0.611111111 26.2444444,0 23.1222222,0 C20.0037037,0 16.9740741,0.611111111 14.1222222,1.81481481 C11.3666667,2.98148148 8.8962963,4.64814815 6.77407407,6.77037037 C4.64814815,8.8962963 2.98148148,11.3666667 1.81851852,14.1222222 C0.611111111,16.9740741 0,20.0037037 0,23.1222222 C0,26.2444444 0.611111111,29.2740741 1.81851852,32.1259259 C2.98148148,34.8777778 4.64814815,37.3518519 6.77407407,39.4740741 C8.8962963,41.5962963 11.3666667,43.2666667 14.1222222,44.4296296 C16.9740741,45.637037 20.0037037,46.2481481 23.1222222,46.2481481 C26.2444444,46.2481481 29.2740741,45.637037 32.1259259,44.4296296 C34.8777778,43.2666667 37.3518519,41.5962963 39.4740741,39.4740741 C41.6,37.3518519 43.2666667,34.8777778 44.4296296,32.1259259 C45.637037,29.2740741 46.2481481,26.2444444 46.2481481,23.1222222 C46.2481481,20.0037037 45.637037,16.9740741 44.4296296,14.1222222 C43.2666667,11.3666667 41.6,8.8962963 39.4740741,6.77037037 Z" id="Path" stroke-opacity="0.6" stroke="#FFFFFF" fill="#1B2337" opacity="0.6"></path>
                        <path d="M18.8568956,32.4420081 C18.5953068,32.5928063 18.3060204,32.6666667 18.0136565,32.6666667 C17.7243701,32.6666667 17.4350837,32.5928063 17.1734949,32.4420081 C16.6533949,32.1404116 16.3333333,31.5864589 16.3333333,30.9863435 L16.3333333,15.6818619 C16.3333333,15.0817465 16.6533949,14.5247163 17.1734949,14.2261973 C17.6935949,13.9246009 18.3367955,13.9246009 18.8568956,14.2261973 L32.1086747,21.8768994 C32.6287748,22.1754183 32.9488363,22.7324485 32.9488363,23.332564 C32.9488363,23.9357569 32.6287748,24.4897096 32.1086747,24.791306 L18.8568956,32.4420081 Z" id="Path" fill="#FFFFFF"></path>
                    </g>
                </g>
            </g>
        </g>
    </g>
</svg>